<svg width="20" height="20" viewBox="0 0 20 20" fill="none" xmlns="http://www.w3.org/2000/svg">
<path fill-rule="evenodd" clip-rule="evenodd" d="M9.61181 0.199646C14.9117 0.199646 19.2226 4.35734 19.2226 9.46879C19.2226 11.8804 18.2631 14.0798 16.6928 15.7306L19.7826 18.7043C20.0718 18.9832 20.0728 19.4344 19.7836 19.7133C19.6395 19.8542 19.449 19.9237 19.2595 19.9237C19.071 19.9237 18.8815 19.8542 18.7365 19.7152L15.6093 16.7076C13.9643 17.9782 11.8785 18.7389 9.61181 18.7389C4.31194 18.7389 0 14.5802 0 9.46879C0 4.35734 4.31194 0.199646 9.61181 0.199646ZM9.61181 1.62743C5.12814 1.62743 1.48041 5.14452 1.48041 9.46879C1.48041 13.7931 5.12814 17.3111 9.61181 17.3111C14.0945 17.3111 17.7422 13.7931 17.7422 9.46879C17.7422 5.14452 14.0945 1.62743 9.61181 1.62743Z" fill="white"/>
</svg>
